<?xml version="1.0" standalone="yes"?>
<svg width="128" height="128">
<path style="fill:#ffffff; stroke:none;" d="M0 0L0 128L128 128L128 0L0 0z"/>
<path style="fill:#010101; stroke:none;" d="M63 28L57 41L71 41L65 28L63 28M57 44L54 43L48 55L80 55L74 43L71 44C68.245 40.8472 59.755 40.8473 57 44z"/>
<path style="fill:#ffffff; stroke:none;" d="M57 44L61 52C61.0072 48.7094 59.2094 46.3616 57 44M70 44L66 52C68.3581 49.7052 70.3171 47.3638 70 44M62 53L63 54L62 53M65 53L66 54L65 53z"/>
<path style="fill:#010101; stroke:none;" d="M39 70C51.7542 70 57.24 69.3369 63 57C49.9043 57 45.3633 57.9189 39 70M65 57C70.76 69.3369 76.2458 70 89 70C82.6367 57.9189 78.0957 57 65 57z"/>
<path style="fill:#ffffff; stroke:none;" d="M48 58L50 63L48 58M79 58L77 63C78.6927 61.2182 79.375 60.419 79 58M51 64L53 69C53.375 66.581 52.6927 65.7818 51 64M76 64L74 69L76 64z"/>
<path style="fill:#010101; stroke:none;" d="M31 85C35.2574 85 42.029 86.3999 45 83L48 84L54 72C42.0529 72 35.0593 72.1723 31 85M74 72L80 84L83 83C85.971 86.3999 92.7426 85 97 85C92.9407 72.1723 85.9471 72 74 72z"/>
<path style="fill:#ffffff; stroke:none;" d="M39 73L42 79C42.0113 76.2711 40.9181 74.9102 39 73M88 73L85 79C86.9181 77.0898 88.0113 75.7289 88 73M43 80L44 83L43 80M84 80L83 83L84 80z"/>
<path style="fill:#010101; stroke:none;" d="M31 89L28 88L22 100C33.7947 100 42.3657 99.6616 45 86C40.7946 86 32.0637 84.036 31 89M57 100C61.2574 100 68.029 101.4 71 98C80.5891 102.615 95.466 100 106 100L100 88L97 89C95.9865 84.2703 84.0135 84.2703 83 89C71.4826 80.9895 60.7847 88.04 57 100z"/>
<path style="fill:#ffffff; stroke:none;" d="M65 88L66 89L65 88M79 88L77 93C78.6927 91.2182 79.375 90.419 79 88M31 89L32 90L31 89M83 89L87 97C87.0072 93.7094 85.2094 91.3616 83 89M96 89L97 90L96 89M66 90L70 98C70.3171 94.6362 68.3581 92.2948 66 90M32 91L36 99C36.3171 95.6362 34.3581 93.2948 32 91M95 91L91 99C93.2094 96.6384 95.0072 94.2906 95 91M76 94L74 98L76 94M88 98L89 99L88 98z"/>
</svg>
