<?xml version="1.0" encoding="UTF-8" ?>
<!DOCTYPE svg PUBLIC "-//W3C//DTD SVG 1.1//EN" "http://www.w3.org/Graphics/SVG/1.1/DTD/svg11.dtd">
<svg width="512pt" height="512pt" viewBox="0 0 512 512" version="1.1" xmlns="http://www.w3.org/2000/svg">
<path fill="#fefefe" d=" M 0.00 0.00 L 512.00 0.00 L 512.00 512.00 L 0.00 512.00 L 0.00 0.00 Z" />
<path fill="#070707" d=" M 228.35 160.15 C 237.54 144.16 246.76 128.19 256.00 112.22 C 265.24 128.19 274.45 144.16 283.65 160.15 C 265.22 160.16 246.78 160.16 228.35 160.15 Z" />
<path fill="#070707" d=" M 228.35 168.11 C 246.78 168.09 265.22 168.09 283.65 168.11 C 274.47 184.11 265.24 200.09 256.00 216.06 C 246.76 200.09 237.53 184.11 228.35 168.11 Z" />
<path fill="#070707" d=" M 221.41 172.13 C 230.65 188.09 239.85 204.08 249.07 220.06 C 230.63 220.06 212.19 220.07 193.75 220.05 C 202.96 204.07 212.16 188.09 221.41 172.13 Z" />
<path fill="#070707" d=" M 262.93 220.06 C 272.15 204.08 281.36 188.09 290.59 172.12 C 299.83 188.08 309.04 204.07 318.25 220.05 C 299.81 220.07 281.37 220.06 262.93 220.06 Z" />
<path fill="#070707" d=" M 193.76 228.01 C 212.20 227.99 230.63 228.01 249.06 228.00 C 239.89 244.02 230.64 259.99 221.41 275.97 C 212.18 259.99 202.92 244.03 193.76 228.01 Z" />
<path fill="#070707" d=" M 262.96 228.01 C 281.38 228.00 299.81 227.99 318.24 228.01 C 309.07 244.03 299.82 259.99 290.59 275.97 C 281.37 259.99 272.10 244.03 262.96 228.01 Z" />
<path fill="#070707" d=" M 159.16 279.98 C 168.33 263.97 177.60 248.02 186.80 232.03 C 196.06 247.99 205.30 263.98 214.49 279.99 C 196.05 280.01 177.61 280.01 159.16 279.98 Z" />
<path fill="#070707" d=" M 297.51 279.99 C 306.70 263.98 315.93 248.00 325.20 232.03 C 334.41 248.02 343.67 263.98 352.84 279.98 C 334.39 280.01 315.95 280.01 297.51 279.99 Z" />
<path fill="#070707" d=" M 159.16 287.95 C 177.60 287.94 196.04 287.93 214.49 287.95 C 205.28 303.94 196.07 319.92 186.80 335.87 C 177.58 319.90 168.36 303.93 159.16 287.95 Z" />
<path fill="#070707" d=" M 297.51 287.95 C 315.96 287.93 334.40 287.94 352.85 287.95 C 343.65 303.92 334.42 319.89 325.21 335.86 C 315.91 319.93 306.73 303.93 297.51 287.95 Z" />
<path fill="#070707" d=" M 124.57 339.89 C 133.76 323.89 142.96 307.89 152.24 291.95 C 161.45 307.94 170.73 323.89 179.90 339.90 C 161.46 339.90 143.01 339.92 124.57 339.89 Z" />
<path fill="#070707" d=" M 332.09 339.89 C 341.29 323.89 350.54 307.92 359.77 291.94 C 369.03 307.90 378.25 323.88 387.43 339.89 C 368.98 339.91 350.54 339.91 332.09 339.89 Z" />
<path fill="#070707" d=" M 124.57 347.89 C 143.02 347.87 161.46 347.87 179.90 347.89 C 170.70 363.86 161.45 379.81 152.24 395.78 C 142.97 379.84 133.78 363.86 124.57 347.89 Z" />
<path fill="#070707" d=" M 262.93 347.88 C 281.37 347.87 299.81 347.87 318.25 347.88 C 309.03 363.85 299.84 379.83 290.58 395.78 C 281.36 379.82 272.14 363.85 262.93 347.88 Z" />
<path fill="#070707" d=" M 332.09 347.88 C 350.54 347.87 368.98 347.86 387.43 347.89 C 378.22 363.86 369.05 379.85 359.75 395.77 C 350.54 379.80 341.30 363.85 332.09 347.88 Z" />
<path fill="#070707" d=" M 117.61 351.85 C 126.89 367.80 136.10 383.80 145.31 399.79 C 126.87 399.82 108.42 399.80 89.98 399.80 C 99.13 383.79 108.40 367.84 117.61 351.85 Z" />
<path fill="#070707" d=" M 297.50 399.79 C 306.71 383.79 315.93 367.81 325.20 351.85 C 334.42 367.83 343.66 383.80 352.84 399.79 C 334.40 399.82 315.95 399.82 297.50 399.79 Z" />
<path fill="#070707" d=" M 394.38 351.84 C 403.60 367.83 412.86 383.78 422.02 399.80 C 403.58 399.80 385.13 399.82 366.69 399.79 C 375.89 383.79 385.13 367.81 394.38 351.84 Z" />
<path fill="#070707" d=" M 228.34 399.79 C 237.54 383.80 246.75 367.82 256.00 351.86 C 265.25 367.82 274.47 383.80 283.65 399.79 C 265.22 399.81 246.78 399.81 228.34 399.79 Z" />
</svg>
